<svg xmlns="http://www.w3.org/2000/svg" width="26" height="27" xmlns:v="https://vecta.io/nano"><style><![CDATA[.B{fill:#f6c358}.C{fill:#fcd462}.D{fill:#dc8744}]]></style><defs><clipPath id="A"><path transform="translate(234.908 4.774)" fill="#fff" stroke="#707070" stroke-width="1" d="M0 0h26v27H0z"/></clipPath></defs><g transform="translate(-234.908 -4.774)" clip-path="url(#A)"><path d="M256.757 23.725v3.008c-.095.785-.578 1.47-1.286 1.823l-.377.225-.373.2a11 11 0 0 1-1.509.6l-.377.118q-.18.053-.373.107l-1.51.335-.377.067-.373.06-1.51.182-.377.032-.373.028-1.51.055h-.75a23.92 23.92 0 0 1-1.509-.055l-.377-.028-.373-.032-1.51-.182-.377-.06-.373-.067-1.51-.335-.377-.107-.373-.118a11 11 0 0 1-1.509-.6l-.377-.2c-.13-.066-.253-.14-.373-.22-.724-.344-1.223-1.032-1.325-1.827v-3.008z" class="B"/><path d="M256.757 23.725c-.094.784-.578 1.467-1.286 1.816-.122.085-.25.163-.38.233-.117.07-.24.134-.373.2-.488.235-.993.436-1.51.6l-.377.118q-.18.053-.373.107l-1.51.336-.377.067-.373.06-1.51.182-.377.032-.373.028-1.51.055h-.75a23.92 23.92 0 0 1-1.509-.055l-.377-.028-.373-.032-1.51-.182-.377-.06-.373-.067-1.51-.336-.377-.107-.373-.118c-.517-.163-1.02-.363-1.51-.6l-.377-.2c-.13-.066-.253-.14-.373-.22-.722-.345-1.22-1.034-1.32-1.828 0-2.116 4.8-3.833 10.72-3.833s10.714 1.72 10.714 3.833z" class="C"/><path d="M246.01 26.487h-.313a22.8 22.8 0 0 1-1.477-.054l-.348-.025h-.064l-.3-.026-1.47-.176-.248-.038-.2-.033-.268-.05-1.44-.32-.352-.1-.358-.113a10.49 10.49 0 0 1-1.162-.449h0l-.568-.3-.183-.1h-.008l-.084-.054c-.61-.4-.82-.747-.82-.924 0-.973 3.68-2.76 9.7-2.76s9.69 1.788 9.69 2.76c0 .176-.21.52-.8.907a2.92 2.92 0 0 1-.3.184l-.056.032c-.093.057-.193.106-.3.16a10.6 10.6 0 0 1-1.374.541l-.354.1-.358.1a17.77 17.77 0 0 1-1.418.315l-.288.053-.207.033c-.068.012-.136.024-.207.032-.483.074-.956.13-1.48.178l-.32.028h-.063c-.114.01-.224.018-.342.025a26.37 26.37 0 0 1-1.456.054h-.343z" class="B"/><g class="D"><path d="M237.37 25.975v3.008l-.377-.2a3.65 3.65 0 0 1-.373-.22v-3c.12.08.244.155.373.22h0l.377.202zm2.26.82v3.008l-.377-.107-.373-.118v-3.01l.373.118.377.107zm2.264.46v3.008l-.377-.06-.373-.067V27.13l.373.067.377.06zm2.263.243v3.008l-.377-.028-.373-.032V27.44l.373.032.377.027zm2.263.054v3.008h-.75v-3.008h.75zm2.263-.114v3.008l-.377.032-.373.028V27.5l.373-.028.377-.03zm2.263-.3v3.008l-.377.067-.373.06v-3.008l.373-.06.377-.067zm2.262-.56v3.008l-.377.118q-.18.053-.373.107v-3.008q.192-.053.373-.107h0zm2.262-1.03v3.014l-.377.225-.373.2v-3.005l.373-.2a3.72 3.72 0 0 0 .377-.234z"/></g><path d="M260.908 19.164v3.008c-.097.783-.58 1.466-1.286 1.818l-.377.225-.373.2a11 11 0 0 1-1.509.6l-.377.118q-.18.053-.373.107l-1.51.335-.377.067-.373.06-1.51.182-.377.032-.373.028-1.51.055h-.75a23.92 23.92 0 0 1-1.509-.055l-.377-.028-.373-.032-1.51-.182-.377-.06-.373-.067-1.51-.335-.377-.107-.373-.118a11 11 0 0 1-1.509-.6l-.377-.2c-.13-.066-.253-.14-.373-.22-.724-.342-1.224-1.03-1.328-1.823v-3.007h21.436z" class="B"/><path d="M260.908 19.164c-.094.784-.578 1.467-1.286 1.816a3.72 3.72 0 0 1-.381.233c-.117.07-.24.134-.373.2-.488.235-.993.436-1.51.6l-.377.118q-.18.053-.373.107l-1.51.336-.377.067-.373.06-1.51.182-.377.032-.373.028-1.51.055h-.75a23.92 23.92 0 0 1-1.509-.055l-.377-.028-.373-.032-1.51-.182-.377-.06-.373-.067-1.51-.336-.377-.107-.373-.118c-.517-.163-1.02-.363-1.51-.6l-.377-.2c-.13-.066-.253-.14-.373-.22-.724-.344-1.222-1.033-1.324-1.828 0-2.116 4.8-3.833 10.72-3.833s10.717 1.717 10.717 3.833z" class="C"/><path d="M250.16 21.925h-.312a22.57 22.57 0 0 1-1.477-.054l-.347-.025h-.065l-.284-.024-1.48-.177-.25-.038-.2-.033-.27-.05-1.44-.32-.352-.1-.358-.112c-.397-.126-.786-.275-1.165-.447h0l-.57-.3-.18-.1h-.007l-.087-.058c-.61-.4-.82-.746-.82-.923 0-.973 3.68-2.762 9.7-2.762s9.69 1.788 9.69 2.762c0 .176-.21.52-.8.907a2.97 2.97 0 0 1-.3.184l-.055.03c-.093.057-.193.106-.3.16-.445.212-.904.393-1.374.54l-.354.1-.358.1a17.3 17.3 0 0 1-1.418.315l-.287.052-.21.034c-.068.012-.135.024-.206.032a22.98 22.98 0 0 1-1.479.178l-.32.028h-.065c-.113.01-.224.018-.34.025-.495.032-.984.05-1.456.054h-.343z" class="B"/><g class="D"><path d="M241.518 21.414v3.008l-.377-.2a3.65 3.65 0 0 1-.373-.22V20.99c.12.08.244.155.373.22h0a3.89 3.89 0 0 0 .377.205zm2.262.82v3.008l-.377-.107-.373-.118V22l.373.118.377.107zm2.264.462v3.008l-.377-.06-.373-.067V22.57l.373.067.377.06zm2.263.24v3.008l-.377-.028-.373-.032v-3.007l.373.032.377.027zm2.263.056V26h-.75v-3.008h.75zm2.263-.115v3.008l-.377.032-.373.028v-3l.373-.028.377-.03zm2.263-.308v3.008l-.377.067-.373.06v-3.008l.373-.06.377-.067zm2.264-.57v3.008l-.377.118q-.18.053-.373.107v-3.008q.192-.053.373-.107h0zm2.258-1.02v3.017l-.377.225-.373.2v-3.008l.373-.2a3.71 3.71 0 0 0 .377-.234z"/></g><path d="M256.757 14.603v3.008c-.096.785-.58 1.47-1.286 1.822l-.377.225-.373.2a11 11 0 0 1-1.509.6l-.377.118q-.18.053-.373.107l-1.51.335-.377.067-.373.06-1.51.182-.377.032-.373.028-1.51.055h-.75a23.92 23.92 0 0 1-1.509-.055l-.377-.028-.373-.032-1.51-.182-.377-.06-.373-.067-1.51-.335-.377-.107-.373-.118a11 11 0 0 1-1.509-.6l-.377-.2c-.14-.066-.277-.14-.408-.225-.71-.352-1.193-1.036-1.3-1.822v-3.008z" class="B"/><path d="M256.757 14.602c-.094.784-.578 1.467-1.286 1.816-.122.085-.25.163-.38.233-.117.07-.24.134-.373.2-.488.235-.993.436-1.51.6l-.377.118q-.18.053-.373.107l-1.51.336-.377.067-.373.06-1.51.182-.377.032-.373.028-1.51.055h-.75a23.92 23.92 0 0 1-1.509-.055l-.377-.028-.373-.032-1.51-.182-.377-.06-.373-.067-1.51-.336-.377-.107-.373-.118c-.517-.163-1.02-.363-1.51-.6l-.377-.2c-.13-.066-.253-.14-.373-.22-.722-.345-1.22-1.034-1.32-1.828 0-2.115 4.8-3.832 10.72-3.832s10.714 1.717 10.714 3.832z" class="C"/><path d="M246 17.364h-.315a22.54 22.54 0 0 1-1.476-.054l-.347-.025h-.065l-.284-.024-1.48-.177-.246-.037-.206-.033-.268-.05-1.44-.32-.352-.1-.357-.112c-.396-.124-.785-.272-1.164-.442h0l-.57-.303-.18-.106h-.007l-.084-.055c-.61-.4-.82-.747-.82-.924 0-.973 3.68-2.762 9.7-2.762s9.69 1.788 9.69 2.762c0 .176-.21.52-.8.907a2.98 2.98 0 0 1-.3.184l-.055.03c-.093.057-.193.106-.3.16-.445.212-.904.393-1.374.54l-.354.1q-.173.05-.357.1a16.96 16.96 0 0 1-1.419.315l-.294.054-.2.033-.2.032a22.98 22.98 0 0 1-1.479.178l-.32.028h-.065c-.114.01-.224.018-.342.025-.494.032-.983.05-1.455.053h-.343z" class="B"/><g class="D"><path d="M237.37 16.852v3.008l-.377-.2a3.65 3.65 0 0 1-.373-.22v-3.013c.12.08.244.155.373.22h0c.12.075.245.142.377.205zm2.26.82v3.008l-.377-.107-.373-.118v-3l.373.118.377.1zm2.264.457v3.008l-.377-.06-.373-.067v-3.005l.373.067.377.056zm2.263.246v3.008l-.377-.028-.373-.032v-3l.373.032.377.03zm2.263.054v3.008h-.75V18.43h.75zm2.263-.116v3l-.377.032-.373.028v-3.008l.373-.028.377-.034zm2.263-.306v3.008l-.377.067-.373.06v-3l.373-.06.377-.064zm2.262-.563v3l-.377.118q-.18.053-.373.107v-3.007q.192-.053.373-.107h0zm2.262-1.027v3.015l-.377.225-.373.2v-3.006l.373-.2a3.71 3.71 0 0 0 .377-.234z"/></g><path d="M260.908 10.042v3.007c-.094.786-.578 1.472-1.286 1.826l-.377.225-.373.2a11 11 0 0 1-1.509.6l-.377.118q-.18.053-.373.107l-1.51.335-.377.067-.373.06-1.51.182-.377.032-.373.028-1.51.055h-.75a23.92 23.92 0 0 1-1.509-.055l-.377-.028-.373-.032-1.51-.182-.377-.06-.373-.067-1.51-.335-.377-.107-.373-.118a11 11 0 0 1-1.509-.6l-.377-.2c-.13-.066-.253-.14-.373-.22-.726-.344-1.226-1.033-1.328-1.83v-3.007z" class="B"/><path d="M260.908 10.038c-.093.785-.577 1.47-1.286 1.82-.122.085-.25.163-.38.233-.117.07-.24.134-.373.2-.488.235-.993.436-1.51.6l-.377.118q-.18.053-.373.107l-1.51.336-.377.067-.373.06-1.51.182-.377.032-.373.028-1.51.055h-.75a23.92 23.92 0 0 1-1.509-.055l-.377-.028-.373-.032-1.51-.182-.392-.063-.373-.067-1.51-.336-.377-.107-.373-.118c-.517-.163-1.02-.363-1.51-.6l-.377-.2c-.13-.066-.253-.14-.373-.22-.718-.348-1.2-1.036-1.31-1.827 0-2.116 4.8-3.833 10.72-3.833s10.717 1.72 10.717 3.833z" class="C"/><path d="M250.16 12.804h-.312a22.57 22.57 0 0 1-1.477-.054l-.347-.025h-.065l-.284-.024-1.48-.177-.243-.037-.208-.033-.27-.05-1.44-.32-.352-.1-.36-.113a10.49 10.49 0 0 1-1.162-.442h0l-.57-.3-.18-.107h-.007l-.087-.057c-.6-.4-.822-.747-.822-.924 0-.973 3.68-2.762 9.7-2.762s9.69 1.788 9.69 2.762c0 .176-.21.52-.8.907a2.98 2.98 0 0 1-.3.184l-.055.03c-.095.058-.2.108-.3.163a10.6 10.6 0 0 1-1.369.538l-.354.1q-.173.05-.357.1a16.96 16.96 0 0 1-1.419.315c-.1.02-.2.038-.294.054l-.406.065c-.48.074-.953.13-1.477.178l-.32.028h-.065c-.113.01-.224.018-.34.025a26.26 26.26 0 0 1-1.457.054h-.343z" class="B"/><g class="D"><path d="M241.518 12.3v3.007l-.377-.2a3.65 3.65 0 0 1-.373-.22v-3.012c.12.08.244.155.373.22h0a3.89 3.89 0 0 0 .377.205zm2.262.822v3.008l-.377-.107-.373-.118v-3.007l.373.118.377.106zm2.264.462v3.008l-.377-.06-.373-.067v-3.008l.373.067.377.06zm2.263.24v3.008l-.377-.028-.373-.032v-3.007l.373.032.377.027zm2.263.055v3.008h-.75V13.87h.75zm2.263-.114v3.008l-.377.032-.373.028v-3l.373-.028.377-.03zm2.263-.308v3.008l-.377.067-.373.06v-3.008l.373-.06.377-.067zm2.264-.56v3.008l-.377.118q-.18.053-.373.107v-3q.192-.053.373-.107h0zm2.258-1.03v3.015l-.377.225-.373.2V12.3l.373-.2a3.73 3.73 0 0 0 .377-.234z"/></g></g></svg>