<svg xmlns="http://www.w3.org/2000/svg" width="44" height="39" xmlns:v="https://vecta.io/nano"><defs><clipPath id="A"><path transform="translate(105 74)" fill="#fff" stroke="#707070" stroke-width="1" d="M0 0h44v39H0z"/></clipPath></defs><g transform="translate(-105 -74)" clip-path="url(#A)"><path d="M146.826 91.327l-3.466-3.158V77.695c.001-.32-.125-.63-.352-.856s-.534-.355-.854-.355H133.8c-.32 0-.627.127-.853.354s-.354.533-.354.853v.67l-4.186-3.8c-.8-.736-2.033-.736-2.834 0l-18.4 16.775a2.1 2.1 0 0 0 1.417 3.657h2.94v16.81c0 .32.127.627.354.853s.533.354.853.354h10.09c.667 0 1.207-.54 1.207-1.207v-10.21h5.93v10.2c0 .667.54 1.207 1.207 1.207h10.1c.32 0 .627-.127.853-.354s.354-.533.354-.853v-16.8h2.94a2.1 2.1 0 0 0 1.417-3.659zm-5.565 1.246c-.32 0-.628.128-.854.355s-.353.535-.352.856v16.8h-7.677v-10.2c0-.667-.54-1.207-1.207-1.207h-8.343c-.667 0-1.207.54-1.207 1.207v10.2h-7.677v-16.8c0-.32-.127-.627-.354-.853s-.533-.354-.853-.354h-3.353L127 76.526l6 5.465c.353.32.863.404 1.3.21s.72-.625.72-1.103v-2.2h5.93v9.8c0 .34.143.663.394.892l3.27 2.98h-3.352z" fill="#fff" stroke="#707070" stroke-width=".08"/></g></svg>